# xmcd generated by iCDc
#
# Track frame offsets:
#     183
#     25483
#     52683
#     68733
#     79533
#     111633
#     130883
#     145808
#     164583
#     181733
#     249783
#     297733
#     328533
#
# Disc length: 4685 seconds
#
# Revision: 0
# Processed by: cddbd v1.4PL0 Copyright (c) Steve Scherf et al.
# Submitted via: iCDc 2.0 http://homepage.mac.com/andersw/icdc/
#
DISCID=b7124b0d
DTITLE=Eric Clapton - Further On Up The Crossroads - Disc 2
DYEAR=1995
DGENRE=Blues
TTITLE0=Bell Bottom Blues
TTITLE1=Key To The Highway
TTITLE2=Dobro Jam #1 (Give LMe Strength #1)
TTITLE3=Dobro Jam #2 (Give LMe Strength #2)
TTITLE4=Blues Jam In Fm
TTITLE5=Blues Jam In Dm
TTITLE6=Gypsy (Please Be With Me)
TTITLE7=Motherless Children (Jam)
TTITLE8=Something You Got (Jam)
TTITLE9=Jam In E
TTITLE10=Meet Me (In The Bootom) (Instrumental Jam)
TTITLE11=Meet Me (In The Bottom) (Vocal)
TTITLE12=Fool Like You
EXTD=
EXTT0=
EXTT1=
EXTT2=
EXTT3=
EXTT4=
EXTT5=
EXTT6=
EXTT7=
EXTT8=
EXTT9=
EXTT10=
EXTT11=
EXTT12=
PLAYORDER=
